<mxfile host="app.diagrams.net" modified="2023-04-10T16:49:35.502Z" agent="Mozilla/5.0 (Windows NT 10.0; Win64; x64) AppleWebKit/537.36 (KHTML, like Gecko) Chrome/112.0.0.0 Safari/537.36" version="21.1.5" etag="4q3hJ-hAgXdsIbJIQ6o9" type="github">
  <diagram name="第 1 页" id="EgObm4E1FLSTnr1twsJV">
    <mxGraphModel>
      <root>
        <mxCell id="0" />
        <mxCell id="1" parent="0" />
      </root>
    </mxGraphModel>
  </diagram>
</mxfile>
